<?xml version="1.0" encoding="utf-8"?>
<!-- Generator: Adobe Illustrator 23.0.2, SVG Export Plug-In . SVG Version: 6.00 Build 0)  -->
<svg version="1.1" id="Layer_1" xmlns="http://www.w3.org/2000/svg" xmlns:xlink="http://www.w3.org/1999/xlink" x="0px" y="0px"
	 viewBox="0 0 446.8 139.8" style="enable-background:new 0 0 446.8 139.8;" xml:space="preserve">
<style type="text/css">
	.st0{fill:#E31837;}
</style>
<g>
	<path d="M17.3,102.1c0,5.3-3.2,6.6-5.8,6.6s-5.8-1.3-5.8-6.6v-9.6h2v10.2c0,2.1,0.9,4.4,3.7,4.4s3.7-2.2,3.7-4.4V92.5h2v9.6H17.3z"
		/>
	<path d="M39.2,92.5h2.7l6.4,11.1c0.3,0.6,0.9,1.6,1.1,2.2h0.1c0-0.5-0.1-1.3-0.1-2V92.5h2v15.9h-2.7l-6.4-11.3
		c-0.3-0.6-0.9-1.6-1.1-2.2h-0.1c0,0.5,0.1,1.3,0.1,2v11.4h-2C39.2,108.3,39.2,92.5,39.2,92.5z"/>
	<path d="M75.4,92.5v15.9h-2V92.5H75.4z"/>
	<path d="M101.9,104.4c0.2,0.6,0.4,1.3,0.5,1.9h0.1c0.2-0.6,0.3-1.3,0.5-1.9l4-12h2.1l-5.4,15.9h-2.6l-5.3-15.9H98L101.9,104.4z"/>
	<path d="M129.5,92.5h9.5v1.6h-7.5v5.2h7.1v1.6h-7.1v5.7h7.7v1.6h-9.8V92.5H129.5z"/>
	<path d="M160.5,92.5h5.5c2.7,0,4.9,1.3,4.9,4.3c0,3.1-2.1,3.8-2.9,4.1l3.8,7.5h-2.4l-3.3-7.2h-3.4v7.2h-2V92.5H160.5z M162.5,99.5
		h3.2c2.3,0,3-1.4,3-2.6c0-2.7-2.3-2.8-3.2-2.8h-3V99.5z"/>
	<path d="M193.3,104.6c0.3,1.1,1.2,2.4,3.3,2.4c2,0,3.1-1.4,3.1-2.8c0-1.7-1.1-2.2-1.7-2.5l-3.8-1.8c-1.5-0.7-2.4-1.8-2.4-3.5
		c0-3.1,2.7-4.3,5-4.3c2.2,0,4.1,0.8,4.9,2.9l-2,0.7c-0.4-1.5-1.7-1.9-2.9-1.9c-2,0-2.8,1.1-2.8,2.6c0,1.6,1.1,2,2.1,2.5l2.9,1.2
		c1,0.4,2.9,1.4,2.9,4.1c0,1.5-0.9,4.5-5.4,4.5c-3.5,0-4.8-2.2-5.1-3.4L193.3,104.6z"/>
	<path d="M225.3,92.5v15.9h-2V92.5H225.3z"/>
	<path d="M250.3,94.3h-4.6v-1.8H257v1.8h-4.6v14.1h-2L250.3,94.3L250.3,94.3z"/>
	<path d="M277.3,92.5h9.5v1.6h-7.5v5.2h7.1v1.6h-7.1v5.7h7.7v1.6h-9.8L277.3,92.5L277.3,92.5z M282.4,88.3h2.4l-3.2,3.2H280
		L282.4,88.3z"/>
</g>
<g>
	<path d="M17.3,133.2c0,5.3-3.2,6.6-5.8,6.6s-5.8-1.3-5.8-6.6v-9.6h2v10.2c0,2.1,0.9,4.4,3.7,4.4s3.7-2.2,3.7-4.4v-10.2h2v9.6H17.3z
		"/>
	<path d="M39.1,123.5h2.7l6.4,11.1c0.3,0.6,0.9,1.6,1.1,2.2h0.1c0-0.5-0.1-1.3-0.1-2v-11.3h2v15.9h-2.7l-6.3-11.2
		c-0.3-0.6-0.9-1.6-1.1-2.2H41c0,0.5,0.1,1.3,0.1,2v11.4h-2V123.5z"/>
	<path d="M75.2,123.5v15.9h-2v-15.9H75.2z"/>
	<path d="M101.5,135.5c0.2,0.6,0.4,1.3,0.5,1.9h0.1c0.2-0.6,0.3-1.3,0.5-1.9l4-12h2.1l-5.4,15.9h-2.6l-5.3-15.9h2.2L101.5,135.5z"/>
	<path d="M129,123.5h9.5v1.6H131v5.2h7.1v1.6H131v5.7h7.7v1.6H129V123.5z"/>
	<path d="M159.8,123.5h5.5c2.7,0,4.9,1.3,4.9,4.3c0,3.1-2.1,3.8-2.9,4.1l3.8,7.5h-2.4l-3.3-7.2H162v7.2h-2v-15.9H159.8z
		 M161.9,130.6h3.2c2.3,0,3-1.4,3-2.6c0-2.7-2.3-2.8-3.2-2.8h-3V130.6z"/>
	<path d="M192.6,135.6c0.3,1.1,1.2,2.5,3.3,2.5c2,0,3.1-1.4,3.1-2.8c0-1.7-1.1-2.2-1.7-2.5l-3.8-1.8c-1.5-0.7-2.4-1.8-2.4-3.5
		c0-3.1,2.7-4.3,5-4.3c2.2,0,4.1,0.8,4.9,2.9l-2,0.7c-0.4-1.5-1.7-1.9-2.9-1.9c-2,0-2.8,1.1-2.8,2.6c0,1.6,1.1,2,2.1,2.5l2.9,1.2
		c1,0.4,2.9,1.4,2.9,4.1c0,1.5-0.9,4.5-5.4,4.5c-3.5,0-4.8-2.2-5.1-3.4L192.6,135.6z"/>
	<path d="M224.4,123.5v15.9h-2v-15.9H224.4z"/>
	<path d="M249.2,125.3h-4.6v-1.8h11.3v1.8h-4.6v14.1h-2L249.2,125.3L249.2,125.3z"/>
	<path d="M280.2,132.9l-5.6-9.4h2.4l3.6,6.2c0.2,0.4,0.4,0.9,0.6,1.3l0,0c0.2-0.4,0.4-0.9,0.7-1.3l3.6-6.2h2.3l-5.6,9.4v6.5h-2
		V132.9z"/>
</g>
<rect x="5.8" y="114.7" width="281.8" height="1"/>
<g>
	<path d="M19.9,70h2.2c4.6,0,5.6-1.7,5.6-6.5V49L10.1,17.5c-3.6-6.4-4.8-7.2-9.3-7.2H0V7.6c3.9,0.1,7.8,0.3,11.5,0.3
		c3.8,0,7.8-0.2,11.6-0.3v2.7h-1.6c-1.9,0-3.4,0.6-3.4,2.9c0,1.3,1.1,3.8,2,5.4l13.6,24.5l12.6-24.2c0.7-1.4,2.5-4.9,2.5-6.5
		s-1.1-2.1-3.6-2.1h-1.7V7.6c3.8,0.1,6.2,0.3,9.1,0.3c3,0,6.1-0.2,9.1-0.3v2.7h-2.3c-3.8,0-4.6,1.2-7.4,6.5L35.7,47.1v16.4
		c0,5.4,2,6.5,5.6,6.5h1.8v2.7c-3.8-0.1-7.8-0.3-11.6-0.3c-4,0-8.2,0.2-11.6,0.3V70z"/>
	<path d="M102.3,6.3c18.2,0,34.2,14.8,34.2,33.8c0,16.1-12.5,33.8-34.5,33.8c-19.8,0-34.1-14.9-34.1-33.1
		C67.9,20.4,84.2,6.3,102.3,6.3z M102,10.1c-12.8,0-24.9,7.9-24.9,29.1c0,14.8,9.7,31.2,25.5,31.2c17,0,24.7-12.5,24.7-29.3
		C127.3,26.4,118,10.1,102,10.1z"/>
	<path d="M150.8,70h1.6c4.2,0,6-1.6,6-7.5V17.7c0-6-1.8-7.5-6-7.5h-1.6V7.5c3.2,0.1,7.6,0.3,11.7,0.3c6.1,0,10.5-0.3,14.6-0.3
		c16.2,0,19.2,12.7,19.2,17c0,12-8.4,15.7-13,17.1l12.3,20.3c5,8.2,6.5,8.8,13.9,9.3v1.9c-1.7,0-3.4,0.1-5.1,0.1
		c-8.1,0-11.8-1-16.7-9L177,46.7c-2.1-3.4-3.3-3.6-10.4-3.8v17.3c0,8.7,1.6,9.7,5.2,9.7h2.7v2.7c-4-0.1-7.9-0.3-11.9-0.3
		c-4.1,0-8.5,0.2-11.7,0.3V70H150.8z M166.6,38.8c1.6,0.5,3.8,0.6,6.2,0.6c8.2,0,15-3.8,15-13.3c0-4-2.7-15.2-15.5-15.2
		c-2.2,0-3.9,0.2-5.8,0.4v27.5H166.6z"/>
	<path d="M223.8,70h1.6c4.2,0,6-1.6,6-7.5V17.7c0-6-1.8-7.5-6-7.5h-1.6V7.5c3.2,0.1,7.6,0.3,11.7,0.3c4,0,7.9-0.2,11.9-0.3v2.7h-2.7
		c-3.7,0-5.2,1-5.2,9.7v21.5l20.1-22.3c0.9-1,4.4-4.7,4.4-6.5c0-1.6-1.3-2.4-3-2.4h-1.6V7.5c3.4,0.1,7.2,0.3,10.8,0.3
		c3.7,0,7.2-0.2,10.9-0.3v2.7h-1.6c-4.5,0-6,0.8-11.5,6.5l-17.7,18.6L273.9,63c5.1,6,7.8,7,11.5,7h1.4v2.7c-2.9-0.1-6-0.3-8.9-0.3
		s-6,0.2-8.9,0.3c-0.5-2.7-0.7-4-6-10l-18.8-21.5l-4.8,5v14c0,8.7,1.6,9.7,5.2,9.7h2.7v2.7c-4-0.1-7.9-0.3-11.9-0.3
		c-4.1,0-8.5,0.2-11.7,0.3L223.8,70L223.8,70z"/>
</g>
<g>
	<path class="st0" d="M404.4,122.6c-23.7,0-44.2-14.6-44.2-46.6V0h-52.9v139.5h139.5V88.6C442.7,108.8,427.9,122.6,404.4,122.6z"/>
	<path class="st0" d="M404.4,94c12.7,0,16.6-11.2,16.6-22.1v-72h-32.5v72C388.5,83.3,392.6,94,404.4,94z"/>
</g>
</svg>
